<svg width="88" height="32" viewBox="0 0 88 32" fill="none" xmlns="http://www.w3.org/2000/svg">
<rect width="88" height="32" fill="white"/>
<path fill-rule="evenodd" clip-rule="evenodd" d="M86.9456 12.8618C75.2958 4.84772 60.0988 0 43.4742 0C26.8495 0 11.6498 4.84772 0 12.8618C11.5871 8.89263 25.1331 6.43088 43.4742 6.43088C61.8152 6.43088 75.3612 8.89263 86.9456 12.8618ZM36.8074 17.0274C35.952 17.0274 35.5133 17.7404 35.4016 18.6134C35.3384 19.1007 35.1814 20.1937 35.0275 21.2658L35.0272 21.2675L35.027 21.2689L35.0268 21.2703L35.0267 21.2709L35.0266 21.2715L35.0266 21.272C34.8758 22.322 34.7281 23.3508 34.6742 23.7699L34.6621 23.8664C34.6026 24.3463 34.5432 24.825 34.0939 25.0302C33.6144 25.2492 33.0313 24.9123 32.5355 24.4688L24.6781 17.586C24.2736 17.2228 23.7545 17.0232 23.2178 17.0246C22.1063 17.0246 21.0383 17.7348 21.0383 19.4723V30.2372C20.996 30.9522 21.5246 31.5669 22.2182 31.6104C22.2455 31.6121 22.2724 31.6127 22.2997 31.6127C23.0127 31.6323 23.614 31.0687 23.6619 30.3355C23.6619 30.3355 24.4793 25.2071 24.5692 24.6344C24.6836 23.9692 24.7844 23.4471 25.4083 23.2478C25.9723 23.0681 26.4981 23.405 27.2991 24.1207C28.1001 24.8365 34.7096 30.9923 34.7096 30.9923C35.1349 31.419 35.7133 31.6438 36.3061 31.6127C36.9573 31.6127 38.1397 31.332 38.1397 29.2885V18.5657C38.1424 17.572 37.5349 17.0274 36.8074 17.0274ZM71.8331 24.2021C71.8331 28.4126 78.4426 29.7796 84.2157 28.4996C85.0358 28.3172 85.5834 28.5782 85.7578 29.2772C85.9567 30.0547 85.3437 30.5572 84.668 30.7958C77.5354 33.3277 67.8009 31.2477 67.8009 24.4323C67.8009 19.6267 71.9529 16.6849 77.6743 16.6849C83.9978 16.6849 86.1583 20.4042 86.1583 22.8603C86.1583 24.4126 85.5153 25.1649 84.2048 25.1649C83.3034 25.1624 81.9855 25.154 80.6687 25.1456C79.0922 25.1356 77.5174 25.1256 76.6608 25.1256C75.5629 25.12 75.1542 24.48 75.1542 23.9186C75.1542 23.2084 75.6637 22.6835 76.6172 22.647C77.0365 22.6309 77.4771 22.6148 77.9189 22.5986L77.9194 22.5986C79.2456 22.55 80.5826 22.5011 81.3877 22.4505C82.5565 22.3803 82.7227 21.513 82.1288 20.8758C81.1698 19.8568 79.3199 19.346 76.9523 19.5396C74.6965 19.7277 71.8331 21.0218 71.8331 24.2021ZM17.2186 28.4996C11.4427 29.7796 4.83591 28.4126 4.83591 24.2021C4.83591 21.0218 7.69659 19.7277 9.95517 19.5396C12.32 19.346 14.1699 19.8568 15.1316 20.8758C15.7256 21.513 15.5594 22.3803 14.3933 22.4505C13.5867 22.501 12.2504 22.5499 10.9249 22.5985C10.482 22.6147 10.0404 22.6308 9.62006 22.647C8.6665 22.6835 8.15703 23.2084 8.15703 23.9186C8.15703 24.48 8.5657 25.12 9.66365 25.1256C10.5203 25.1256 12.0961 25.1356 13.6735 25.1456C14.9907 25.154 16.309 25.1624 17.2104 25.1649C18.5181 25.1649 19.1638 24.4126 19.1638 22.8603C19.1638 20.4042 17.0006 16.6849 10.6772 16.6849C4.95579 16.6849 0.803715 19.6267 0.803715 24.4323C0.803715 31.2477 10.5382 33.3277 17.6736 30.7958C18.3492 30.5572 18.9622 30.0547 18.7633 29.2772C18.5863 28.5782 18.0386 28.3172 17.2186 28.4996ZM62.4464 29.1486C62.31 27.7299 62.0533 25.0605 61.946 21.9453C61.9449 21.8341 62.0204 21.7378 62.1258 21.7151L65.8856 21.0891C65.9191 21.0776 65.9548 21.0751 65.9896 21.0816C66.1035 21.1032 66.179 21.216 66.158 21.3333C65.9918 24.9825 65.6594 28.6456 65.545 29.8358C65.4224 31.2534 64.7386 31.6155 64.0329 31.6155C63.3273 31.6155 62.6326 31.2281 62.51 29.8246C62.4946 29.6499 62.4727 29.4229 62.4465 29.1495L62.4464 29.1486ZM64.0438 16.6764C62.8979 16.602 61.9106 17.4989 61.8384 18.6792C61.8335 18.7601 61.8329 18.8412 61.837 18.922C61.837 19.082 61.8561 19.5199 61.8806 20.0673C61.8877 20.1989 61.9967 20.2997 62.1245 20.2924C62.134 20.2919 62.1435 20.2907 62.1531 20.2891L66.0763 19.6322C66.1831 19.6148 66.2632 19.5219 66.267 19.4105C66.267 19.2196 66.267 19.0259 66.2833 18.9333C66.3307 17.7344 65.426 16.7227 64.2623 16.6739C64.1896 16.6708 64.1166 16.6717 64.0438 16.6764ZM55.0609 22.618C56.4469 22.6095 57.6643 22.6021 58.2789 22.6021C59.6493 22.6021 60.4639 23.2337 60.4585 24.8814C60.4585 28.1207 57.2409 31.8259 50.6341 31.8259C44.7165 31.8259 39.9705 29.3726 39.9705 24.32C39.9705 19.5986 44.7329 16.6765 50.6749 16.6765C52.5523 16.6509 54.4249 16.8811 56.2437 17.3614C57.2463 17.6337 57.7449 18.1389 57.5406 18.9249C57.3498 19.6659 56.587 19.8091 55.8105 19.6968C46.986 18.4084 44.0136 21.4372 44.0136 24.188C44.0136 27.113 47.4846 28.96 50.6395 28.96C53.0507 28.96 55.3773 28.1207 56.3336 26.8407C56.8104 26.2007 56.7913 25.454 55.3828 25.381C54.9281 25.3566 54.2427 25.3221 53.4671 25.2831C52.4582 25.2324 51.2966 25.1739 50.2908 25.12C49.122 25.0582 48.7841 24.4126 48.7841 23.913C48.7841 23.3375 49.0975 22.6414 50.3507 22.6414C51.7198 22.6384 53.4976 22.6275 55.0609 22.618Z" fill="#00AAFF"/>
</svg>
