<svg width="14" height="14" viewBox="0 0 14 14" fill="none" xmlns="http://www.w3.org/2000/svg">
<path fill-rule="evenodd" clip-rule="evenodd" d="M1 0.25H3.625C4.0375 0.25 4.375 0.5875 4.375 1C4.375 1.9375 4.525 2.8375 4.8025 3.6775C4.885 3.94 4.825 4.2325 4.615 4.4425L2.965 6.0925C4.045 8.215 5.785 9.9475 7.9075 11.035L9.5575 9.385C9.7075 9.2425 9.895 9.1675 10.09 9.1675C10.165 9.1675 10.2475 9.175 10.3225 9.205C11.1625 9.4825 12.07 9.6325 13 9.6325C13.4125 9.6325 13.75 9.97 13.75 10.3825V13C13.75 13.4125 13.4125 13.75 13 13.75C5.9575 13.75 0.25 8.0425 0.25 1C0.25 0.5875 0.5875 0.25 1 0.25ZM2.90505 1.75C2.95005 2.4175 3.06255 3.07 3.24255 3.6925L2.34255 4.5925C2.03505 3.6925 1.84005 2.74 1.77255 1.75H2.90505ZM10.3 10.765C10.9375 10.945 11.59 11.0575 12.25 11.1025V12.22C11.26 12.1525 10.3075 11.9575 9.39995 11.6575L10.3 10.765Z" fill="#757575"/>
</svg>
